<svg xmlns="http://www.w3.org/2000/svg" width="220" height="70.555" viewBox="0 0 220 70.555"><g transform="translate(0 0)"><path d="M140.929,71.443l2.656-15.113H108.6l-1.449,8.2h.006L104.5,79.641h11.515l2.661-15.107h12.038l-1.212,6.9h-8.936l-1.444,8.2h8.936L125.2,95.85h11.427l3.476-19.774.821-4.633Z" transform="translate(-46.926 -25.295)" fill="#eb0a1e"/><path d="M212.646,62.293l1.879-10.683L177.049,64.7,175.17,75.378l14.1-4.925-2.661,15.1h11.675l3.432-19.443Z" transform="translate(-78.66 -23.175)" fill="#eb0a1e"/><path d="M307.387,56.268H273.5l-1.444,8.176h15.961l-18.137,22.2-3.713-19.239H255.328l2.281,11.967h-11.9L257.019,56.13H245.234L229.94,87.578h51.453l7.267-8.755,3.994,8.8h11.14L295.6,70.46Z" transform="translate(-103.254 -25.205)" fill="#eb0a1e"/><path d="M367.7,65.763h7.03l1.658-9.383h-7.036Z" transform="translate(-165.116 -25.317)" fill="#eb0a1e"/><path d="M385.2,56.38l-1.653,9.383h7.03l1.653-9.383Z" transform="translate(-172.233 -25.317)" fill="#eb0a1e"/><path d="M62.19,56.33h-19.5L41.27,64.357H60.779l-.694,3.917H40.548l-1.311,7.443H58.774l-.694,3.923h-19.5L37.16,87.668H68.1l1.416-8.027h0l1.5-8.523.518-2.843h-.017l2.1-11.945Z" transform="translate(-16.687 -25.295)" fill="#eb0a1e"/><path d="M57.932,25.41l1.747-9.945H22.055L24.782,0H11.013L0,62.417H13.768L20.3,25.41Z" fill="#eb0a1e"/></g></svg>